<svg xmlns="http://www.w3.org/2000/svg" width="29.397" height="23.646" viewBox="0 0 29.397 23.646"><path d="M5.68,9.793a41.087,41.087,0,0,0,9.809.98,40.524,40.524,0,0,0,9.809-.98c2.731-.637,4.041-1.494,4.041-2.3,0-.576-.588-1.139-1.653-1.567a.894.894,0,0,1,.429.722c0,.82-1.237,1.494-3.723,2.057a41.661,41.661,0,0,1-8.817.857,43.053,43.053,0,0,1-8.743-.833C4.443,8.14,3.194,7.5,3.194,6.671c0-.343.159-.637.637-.98-1.494.576-2.3,1.065-2.3,1.8.086.833,1.42,1.665,4.151,2.3Zm5.743-2.645c2.78-.245,3.588-2.033,6.845-2.327,1.6-.122,2.621.2,2.731.759.1.527-.7.882-1.665.955-1.335.135-1.886-.343-2-.8-.992.11-1.151.527-1.1.82.11.563,1.31,1.127,3.368.931,2.327-.184,3.11-1.1,2.914-2.021-.245-1.2-2.033-2.2-5.241-1.9-4.115.367-4.09,2.278-6.894,2.51-1.151.11-1.788-.159-1.9-.612-.073-.453.49-.674,1.151-.722a3.461,3.461,0,0,1,1.714.245c.257-.135.343-.269.318-.429-.122-.429-.967-.612-2.033-.539C7.554,4.209,7.554,5.14,7.627,5.556c.208,1.065,1.812,1.776,3.8,1.592Zm13.984,4.7a43.706,43.706,0,0,1-9.809.992,46.241,46.241,0,0,1-9.894-.98c-2.3-.588-3.527-1.237-3.955-1.91A23.053,23.053,0,0,0,2.839,14.3a6.021,6.021,0,0,0-1.592,1.433A5.535,5.535,0,0,0,0,19.528a4.408,4.408,0,0,0,1.739,3.208,4.168,4.168,0,0,0,3.527.833,11.849,11.849,0,0,0,1.58-.514,4.426,4.426,0,0,1-2.89-1.065,4.347,4.347,0,0,1-1.825-2.963,3.951,3.951,0,0,1,.649-3.159,3.62,3.62,0,0,1,.478-.49,27.975,27.975,0,0,0,1.2,2.6C5.448,19.48,6.44,20.79,7.431,22.21a10.83,10.83,0,0,1,.906,2.474,4.776,4.776,0,0,0,2.731,1.837,11.309,11.309,0,0,0,4.384.625h.159a12.491,12.491,0,0,0,4.519-.637,5.119,5.119,0,0,0,2.645-1.825h.086a10.468,10.468,0,0,1,.82-2.474c.98-1.433,1.984-2.731,2.963-4.237a25.716,25.716,0,0,0,2.743-8.009C28.861,10.7,27.624,11.348,25.408,11.851Z" transform="translate(0.009 -3.517)" fill="#90593c"/></svg>