<?xml version="1.0" encoding="UTF-8" ?>
<!DOCTYPE svg PUBLIC "-//W3C//DTD SVG 1.1//EN" "http://www.w3.org/Graphics/SVG/1.1/DTD/svg11.dtd">
<svg width="66pt" height="66pt" viewBox="0 0 66 66" version="1.1" xmlns="http://www.w3.org/2000/svg">
<g id="#0909093c">
<path fill="#090909" opacity="0.24" d=" M 8.34 0.00 L 21.60 0.00 C 26.39 1.39 31.19 5.31 29.97 11.00 C 29.74 16.89 32.25 25.25 25.84 28.84 C 19.98 31.86 12.57 31.58 6.32 29.61 C 2.92 28.82 1.70 25.26 0.00 22.63 L 0.00 8.36 C 1.35 4.41 4.58 1.61 8.34 0.00 M 8.26 6.18 C 4.38 8.40 6.63 13.58 6.01 17.01 C 4.86 20.62 7.00 25.14 10.98 25.03 C 15.09 24.51 20.58 26.35 23.74 22.76 C 25.30 17.36 26.66 10.19 21.80 6.17 C 17.31 5.64 12.76 6.06 8.26 6.18 Z" />
<path fill="#090909" opacity="0.24" d=" M 44.40 0.00 L 57.66 0.00 C 61.42 1.61 64.65 4.41 66.00 8.36 L 66.00 22.63 C 64.30 25.26 63.08 28.82 59.68 29.61 C 53.43 31.58 46.02 31.86 40.16 28.84 C 33.75 25.25 36.26 16.89 36.03 11.00 C 34.81 5.31 39.61 1.39 44.40 0.00 M 44.23 6.15 C 41.58 8.59 39.78 12.24 40.98 15.99 C 39.82 20.10 42.61 24.98 46.98 25.03 C 50.77 24.49 55.31 26.07 58.71 23.71 C 61.46 19.08 59.45 13.30 59.82 8.26 C 56.27 3.53 49.11 7.09 44.23 6.15 Z" />
<path fill="#090909" opacity="0.24" d=" M 6.32 36.39 C 12.57 34.42 19.98 34.14 25.84 37.16 C 32.25 40.75 29.74 49.11 29.97 55.00 C 31.19 60.69 26.39 64.61 21.60 66.00 L 8.34 66.00 C 4.58 64.39 1.35 61.59 0.00 57.64 L 0.00 43.37 C 1.70 40.74 2.92 37.18 6.32 36.39 M 9.30 41.28 C 4.39 42.71 6.40 49.49 5.99 53.01 C 3.34 60.82 12.46 60.65 17.01 60.02 C 23.04 62.38 26.37 54.54 25.02 50.01 C 26.18 45.90 23.39 41.02 19.02 40.97 C 16.59 41.05 11.73 41.21 9.30 41.28 Z" />
<path fill="#090909" opacity="0.24" d=" M 36.30 41.36 C 40.36 33.80 50.97 34.16 58.02 35.98 C 62.63 35.82 63.96 40.33 66.00 43.37 L 66.00 57.66 C 64.39 61.42 61.59 64.65 57.64 66.00 L 44.40 66.00 C 42.57 65.03 40.38 64.57 38.83 63.16 C 33.17 57.43 36.88 48.42 36.30 41.36 M 45.30 41.29 C 41.34 42.38 40.03 47.40 40.98 50.99 C 40.19 54.55 42.39 60.87 46.99 60.04 C 51.06 59.10 57.09 62.08 59.80 57.77 C 60.41 53.31 59.94 48.77 59.71 44.30 C 57.60 38.63 49.72 41.57 45.30 41.29 Z" />
</g>
</svg>
