<svg xmlns="http://www.w3.org/2000/svg" width="21.637" height="23.287" viewBox="0 0 21.637 23.287"><g transform="translate(0.5 0.561)" opacity="0.24"><path d="M416.786,233.9l-5.159-2.979a5.174,5.174,0,0,0-5.163,0l-5.156,2.978a5.176,5.176,0,0,0-2.579,4.469v5.951a5.177,5.177,0,0,0,2.58,4.47l5.155,2.978a5.174,5.174,0,0,0,5.163,0l5.159-2.978a5.176,5.176,0,0,0,2.58-4.47v-5.95A5.175,5.175,0,0,0,416.786,233.9Zm1.249,10.419a3.841,3.841,0,0,1-1.915,3.318l-5.159,2.979a3.84,3.84,0,0,1-3.832,0l-5.155-2.978a3.842,3.842,0,0,1-1.914-3.317v-5.951a3.842,3.842,0,0,1,1.914-3.317l5.156-2.978a3.841,3.841,0,0,1,3.831,0l5.159,2.979a3.842,3.842,0,0,1,1.915,3.318Z" transform="translate(-398.73 -230.228)" fill="#195ab2" stroke="#272727" stroke-width="1"/><path d="M417.073,246.828a3.808,3.808,0,1,0,3.808,3.808A3.812,3.812,0,0,0,417.073,246.828Zm0,6.285a2.477,2.477,0,1,1,2.477-2.477A2.48,2.48,0,0,1,417.073,253.113Z" transform="translate(-406.817 -239.463)" fill="#195ab2" stroke="#272727" stroke-width="1"/></g></svg>