<svg xmlns="http://www.w3.org/2000/svg" width="19.52" height="15.75" viewBox="0 0 19.52 15.75"><g transform="translate(-4.5 -10.125)"><path d="M23.207,12.375H5.313c-.447,0-.813-.506-.813-1.125h0c0-.619.366-1.125.813-1.125H23.207c.447,0,.813.506.813,1.125h0C24.02,11.869,23.654,12.375,23.207,12.375Z" fill="#adacbc"/><path d="M16.434,19.125H5.019c-.285,0-.519-.506-.519-1.125h0c0-.619.233-1.125.519-1.125H16.434c.285,0,.519.506.519,1.125h0C16.953,18.619,16.719,19.125,16.434,19.125Z" fill="#adacbc"/><path d="M23.207,25.875H5.313c-.447,0-.813-.506-.813-1.125h0c0-.619.366-1.125.813-1.125H23.207c.447,0,.813.506.813,1.125h0C24.02,25.369,23.654,25.875,23.207,25.875Z" fill="#adacbc"/></g></svg>