<?xml version="1.0" encoding="UTF-8" ?>
<!DOCTYPE svg PUBLIC "-//W3C//DTD SVG 1.1//EN" "http://www.w3.org/Graphics/SVG/1.1/DTD/svg11.dtd">
<svg width="61pt" height="64pt" viewBox="0 0 61 64" version="1.1" xmlns="http://www.w3.org/2000/svg">
<g id="#0808083a">
<path fill="#080808" opacity="0.23" d=" M 26.36 0.00 L 33.64 0.00 C 39.97 2.11 44.58 7.20 46.33 13.57 C 54.09 14.55 58.13 22.89 58.11 30.00 C 59.03 37.25 60.64 44.56 59.90 51.90 C 58.29 58.89 51.78 62.08 45.58 64.00 L 14.36 64.00 C 8.01 63.01 1.70 59.08 0.00 52.60 L 0.00 42.49 C 2.92 34.97 0.80 26.15 4.97 18.98 C 6.45 14.28 14.08 16.09 14.84 10.90 C 16.27 5.38 21.35 2.01 26.36 0.00 M 28.28 6.31 C 25.25 7.49 21.13 9.27 20.95 12.93 C 26.99 13.19 33.04 12.98 39.08 12.94 C 38.35 8.60 32.54 5.34 28.28 6.31 M 12.25 20.18 C 9.03 22.35 9.01 26.66 8.13 30.06 C 7.61 37.92 4.35 45.99 7.28 53.74 C 11.15 58.59 18.51 57.78 24.00 58.04 C 32.85 57.58 42.35 59.29 50.74 55.74 C 52.82 52.93 55.76 50.04 53.99 46.00 C 53.15 39.23 52.33 32.44 51.37 25.68 C 50.78 21.58 46.37 18.12 42.01 19.98 C 32.09 20.07 22.17 19.78 12.25 20.18 Z" />
<path fill="#080808" opacity="0.23" d=" M 21.21 26.32 C 25.55 26.16 25.55 32.84 21.21 32.68 C 17.06 32.03 17.06 26.97 21.21 26.32 Z" />
<path fill="#080808" opacity="0.23" d=" M 38.29 26.30 C 41.01 25.39 43.69 30.30 40.78 31.87 C 34.76 36.60 33.72 26.46 38.29 26.30 Z" />
</g>
</svg>
